<?xml version="1.0" standalone="no"?>
<!DOCTYPE svg PUBLIC "-//W3C//DTD SVG 20010904//EN"
 "http://www.w3.org/TR/2001/REC-SVG-20010904/DTD/svg10.dtd">
<svg version="1.0" xmlns="http://www.w3.org/2000/svg"
 width="512.000000pt" height="512.000000pt" viewBox="0 0 512.000000 512.000000"
 preserveAspectRatio="xMidYMid meet">
<g transform="translate(0.000000,512.000000) scale(0.100000,-0.100000)"
fill="#000000" stroke="none">
<path d="M2355 4630 c-258 -29 -489 -96 -720 -210 -405 -199 -738 -534 -940
-945 -260 -529 -283 -1135 -64 -1688 125 -318 358 -632 629 -850 501 -402
1184 -551 1809 -392 667 169 1210 662 1447 1312 147 406 161 865 39 1287 -134
461 -438 875 -842 1145 -248 166 -542 280 -839 326 -120 19 -409 27 -519 15z
m500 -334 c371 -63 704 -241 970 -518 212 -220 345 -449 428 -738 49 -169 62
-270 61 -490 0 -182 -3 -219 -27 -331 -45 -215 -123 -412 -230 -585 -85 -137
-114 -160 -182 -142 -36 10 -2359 2326 -2380 2373 -29 66 -1 105 139 192 210
130 470 221 722 253 99 12 394 4 499 -14z m-407 -1849 c845 -844 1175 -1180
1180 -1202 19 -70 -9 -102 -163 -194 -480 -286 -1046 -329 -1570 -120 -333
133 -640 393 -836 709 -229 369 -312 843 -223 1278 36 181 126 406 227 568 85
137 114 160 182 142 22 -6 359 -337 1203 -1181z"/>
</g>
</svg>
